<svg xmlns="http://www.w3.org/2000/svg" width="720" height="440" viewBox="0 0 720 440" font-family="sans-serif" font-size="12">
<rect width="720" height="440" fill="white"/>
<text x="315" y="20" text-anchor="middle" font-size="14">Netlib LP: Dolan-More performance profile</text>
<line x1="60.0" y1="36" x2="60.0" y2="384" stroke="#ddd"/>
<text x="60.0" y="400" text-anchor="middle">1</text>
<line x1="162.0" y1="36" x2="162.0" y2="384" stroke="#ddd"/>
<text x="162.0" y="400" text-anchor="middle">2</text>
<line x1="264.0" y1="36" x2="264.0" y2="384" stroke="#ddd"/>
<text x="264.0" y="400" text-anchor="middle">4</text>
<line x1="366.0" y1="36" x2="366.0" y2="384" stroke="#ddd"/>
<text x="366.0" y="400" text-anchor="middle">8</text>
<line x1="468.0" y1="36" x2="468.0" y2="384" stroke="#ddd"/>
<text x="468.0" y="400" text-anchor="middle">16</text>
<line x1="570.0" y1="36" x2="570.0" y2="384" stroke="#ddd"/>
<text x="570.0" y="400" text-anchor="middle">32</text>
<line x1="60" y1="384.0" x2="570" y2="384.0" stroke="#ddd"/>
<text x="54" y="388.0" text-anchor="end">0.0</text>
<line x1="60" y1="314.4" x2="570" y2="314.4" stroke="#ddd"/>
<text x="54" y="318.4" text-anchor="end">0.2</text>
<line x1="60" y1="244.8" x2="570" y2="244.8" stroke="#ddd"/>
<text x="54" y="248.8" text-anchor="end">0.4</text>
<line x1="60" y1="175.2" x2="570" y2="175.2" stroke="#ddd"/>
<text x="54" y="179.2" text-anchor="end">0.6</text>
<line x1="60" y1="105.6" x2="570" y2="105.6" stroke="#ddd"/>
<text x="54" y="109.6" text-anchor="end">0.8</text>
<line x1="60" y1="36.0" x2="570" y2="36.0" stroke="#ddd"/>
<text x="54" y="40.0" text-anchor="end">1.0</text>
<text x="315" y="426" text-anchor="middle">tau: within this factor of the fastest (log2 scale)</text>
<text x="16" y="210" text-anchor="middle" transform="rotate(-90 16 210)">fraction of instances</text>
<polyline points="60.0,107.9 60.0,107.9 60.0,107.9 60.0,107.9 60.0,107.9 60.0,107.9 60.0,107.9 60.0,107.9 60.0,107.9 60.0,107.9 60.0,107.9 60.0,107.9 60.0,107.9 60.0,107.9 60.0,107.9 60.0,107.9 60.0,107.9 60.0,107.9 60.0,107.9 60.0,107.9 60.0,107.9 60.0,107.9 60.0,107.9 60.0,107.9 60.0,107.9 60.0,107.9 60.0,107.9 60.0,107.9 60.0,107.9 60.0,107.9 60.0,107.9 60.0,107.9 60.0,107.9 60.0,107.9 60.0,107.9 60.0,107.9 60.0,107.9 60.0,107.9 60.0,107.9 60.0,107.9 60.0,107.9 60.0,107.9 60.0,107.9 60.0,107.9 60.0,107.9 60.0,107.9 60.0,107.9 60.0,107.9 60.0,107.9 60.0,107.9 60.0,107.9 60.0,107.9 60.0,107.9 60.0,107.9 60.0,107.9 60.0,107.9 60.0,107.9 60.0,107.9 60.0,107.9 60.0,107.9 60.0,107.9 60.0,107.9 60.0,107.9 60.0,107.9 60.0,107.9 60.0,107.9 60.0,107.9 60.0,107.9 60.0,107.9 60.0,107.9 60.0,107.9 60.0,107.9 60.0,107.9 60.0,107.9 60.0,107.9 60.0,107.9 60.0,107.9 60.0,107.9 60.0,107.9 60.0,107.9 60.0,107.9 60.0,107.9 60.0,107.9 60.0,107.9 60.0,107.9 60.0,107.9 60.0,107.9 60.0,107.9 60.0,107.9 60.0,107.9 60.0,107.9 60.0,107.9 60.0,107.9 60.0,107.9 60.0,107.9 60.0,107.9 60.0,107.9 60.0,107.9 60.0,107.9 60.0,107.9 60.0,107.9 60.0,107.9 60.0,107.9 60.0,107.9 60.0,107.9 60.0,107.9 60.0,107.9 60.0,107.9 60.0,107.9 60.0,107.9 60.0,107.9 60.0,107.9 60.0,107.9 60.0,107.9 60.0,107.9 60.0,107.9 60.0,107.9 60.0,107.9 60.0,107.9 60.0,107.9 60.0,107.9 60.0,107.9 60.0,107.9 60.0,107.9 60.0,107.9 60.0,107.9 60.0,107.9 60.0,107.9 60.0,107.9 60.0,107.9 60.0,107.9 60.0,107.9 60.0,107.9 60.0,107.9 60.0,107.9 60.0,107.9 60.0,107.9 60.0,107.9 60.0,107.9 60.0,107.9 60.0,107.9 60.0,107.9 60.0,107.9 60.0,107.9 60.0,107.9 60.0,107.9 60.0,107.9 66.6,107.9 66.6,104.1 90.4,104.1 90.4,100.3 100.2,100.3 100.2,96.5 119.0,96.5 119.0,92.7 130.9,92.7 130.9,89.0 155.2,89.0 155.2,85.2 190.4,85.2 190.4,81.4 194.8,81.4 194.8,77.6 198.8,77.6 198.8,73.8 203.7,73.8 203.7,70.0 215.6,70.0 215.6,66.3 227.6,66.3 227.6,62.5 267.4,62.5 267.4,58.7 270.8,58.7 270.8,54.9 277.1,54.9 277.1,51.1 321.5,51.1 321.5,47.3 341.4,47.3 341.4,43.6 374.0,43.6 374.0,39.8 426.4,39.8 426.4,36.0 570.0,36.0" fill="none" stroke="#D55E00" stroke-width="3"><title>SANKHYA: fastest on 79%, solved 100%</title></polyline>
<line x1="584" y1="48" x2="610" y2="48" stroke="#D55E00" stroke-width="3"/>
<text x="616" y="52">SANKHYA</text>
<polyline points="60.0,85.2 60.0,85.2 60.0,85.2 60.0,85.2 60.0,85.2 60.0,85.2 60.0,85.2 60.0,85.2 60.0,85.2 60.0,85.2 60.0,85.2 60.0,85.2 60.0,85.2 60.0,85.2 60.0,85.2 60.0,85.2 60.0,85.2 60.0,85.2 60.0,85.2 60.0,85.2 60.0,85.2 60.0,85.2 60.0,85.2 60.0,85.2 60.0,85.2 60.0,85.2 60.0,85.2 60.0,85.2 60.0,85.2 60.0,85.2 60.0,85.2 60.0,85.2 60.0,85.2 60.0,85.2 60.0,85.2 60.0,85.2 60.0,85.2 60.0,85.2 60.0,85.2 60.0,85.2 60.0,85.2 60.0,85.2 60.0,85.2 60.0,85.2 60.0,85.2 60.0,85.2 60.0,85.2 60.0,85.2 60.0,85.2 60.0,85.2 60.0,85.2 60.0,85.2 60.0,85.2 60.0,85.2 60.0,85.2 60.0,85.2 60.0,85.2 60.0,85.2 60.0,85.2 60.0,85.2 60.0,85.2 60.0,85.2 60.0,85.2 60.0,85.2 60.0,85.2 60.0,85.2 60.0,85.2 60.0,85.2 60.0,85.2 60.0,85.2 60.0,85.2 60.0,85.2 60.0,85.2 60.0,85.2 60.0,85.2 60.0,85.2 60.0,85.2 60.0,85.2 60.0,85.2 60.0,85.2 60.0,85.2 60.0,85.2 60.0,85.2 60.0,85.2 60.0,85.2 60.0,85.2 60.0,85.2 60.0,85.2 60.0,85.2 60.0,85.2 60.0,85.2 60.0,85.2 60.0,85.2 60.0,85.2 60.0,85.2 60.0,85.2 60.0,85.2 60.0,85.2 60.0,85.2 60.0,85.2 60.0,85.2 60.0,85.2 60.0,85.2 60.0,85.2 60.0,85.2 60.0,85.2 60.0,85.2 60.0,85.2 60.0,85.2 60.0,85.2 60.0,85.2 60.0,85.2 60.0,85.2 60.0,85.2 60.0,85.2 60.0,85.2 60.0,85.2 60.0,85.2 60.0,85.2 60.0,85.2 60.0,85.2 60.0,85.2 60.0,85.2 60.0,85.2 60.0,85.2 60.0,85.2 60.0,85.2 60.0,85.2 60.0,85.2 60.0,85.2 60.0,85.2 60.0,85.2 60.0,85.2 60.0,85.2 60.0,85.2 60.0,85.2 60.0,85.2 60.0,85.2 60.0,85.2 60.0,85.2 60.0,85.2 60.0,85.2 60.0,85.2 60.0,85.2 60.0,85.2 60.0,85.2 60.0,85.2 60.0,85.2 60.0,85.2 60.0,85.2 60.0,85.2 60.0,85.2 60.0,85.2 60.0,85.2 60.0,85.2 60.0,85.2 60.0,85.2 60.0,85.2 60.0,85.2 62.0,85.2 62.0,81.4 70.0,81.4 70.0,77.6 72.4,77.6 72.4,73.8 77.0,73.8 77.0,70.0 91.4,70.0 91.4,66.3 99.9,66.3 99.9,62.5 112.2,62.5 112.2,58.7 112.5,58.7 112.5,54.9 117.2,54.9 117.2,51.1 117.3,51.1 117.3,47.3 118.4,47.3 118.4,43.6 124.8,43.6 124.8,39.8 224.5,39.8 224.5,36.0 570.0,36.0" fill="none" stroke="#0072B2" stroke-width="1.8"><title>HiGHS: fastest on 86%, solved 100%</title></polyline>
<line x1="584" y1="68" x2="610" y2="68" stroke="#0072B2" stroke-width="1.8"/>
<text x="616" y="72">HiGHS</text>
<polyline points="60.0,134.3 60.0,134.3 60.0,134.3 60.0,134.3 60.0,134.3 60.0,134.3 60.0,134.3 60.0,134.3 60.0,134.3 60.0,134.3 60.0,134.3 60.0,134.3 60.0,134.3 60.0,134.3 60.0,134.3 60.0,134.3 60.0,134.3 60.0,134.3 60.0,134.3 60.0,134.3 60.0,134.3 60.0,134.3 60.0,134.3 60.0,134.3 60.0,134.3 60.0,134.3 60.0,134.3 60.0,134.3 60.0,134.3 60.0,134.3 60.0,134.3 60.0,134.3 60.0,134.3 60.0,134.3 60.0,134.3 60.0,134.3 60.0,134.3 60.0,134.3 60.0,134.3 60.0,134.3 60.0,134.3 60.0,134.3 60.0,134.3 60.0,134.3 60.0,134.3 60.0,134.3 60.0,134.3 60.0,134.3 60.0,134.3 60.0,134.3 60.0,134.3 60.0,134.3 60.0,134.3 60.0,134.3 60.0,134.3 60.0,134.3 60.0,134.3 60.0,134.3 60.0,134.3 60.0,134.3 60.0,134.3 60.0,134.3 60.0,134.3 60.0,134.3 60.0,134.3 60.0,134.3 60.0,134.3 60.0,134.3 60.0,134.3 60.0,134.3 60.0,134.3 60.0,134.3 60.0,134.3 60.0,134.3 60.0,134.3 60.0,134.3 60.0,134.3 60.0,134.3 60.0,134.3 60.0,134.3 60.0,134.3 60.0,134.3 60.0,134.3 60.0,134.3 60.0,134.3 60.0,134.3 60.0,134.3 60.0,134.3 60.0,134.3 60.0,134.3 60.0,134.3 60.0,134.3 60.0,134.3 60.0,134.3 60.0,134.3 60.0,134.3 60.0,134.3 60.0,134.3 60.0,134.3 60.0,134.3 60.0,134.3 60.0,134.3 60.0,134.3 60.0,134.3 60.0,134.3 60.0,134.3 60.0,134.3 60.0,134.3 60.0,134.3 60.0,134.3 60.0,134.3 60.0,134.3 60.0,134.3 60.0,134.3 60.0,134.3 60.0,134.3 60.0,134.3 60.0,134.3 60.0,134.3 60.0,134.3 60.0,134.3 60.0,134.3 60.0,134.3 60.0,134.3 60.0,134.3 60.0,134.3 60.0,134.3 60.0,134.3 60.0,134.3 60.0,134.3 60.0,134.3 60.0,134.3 60.0,134.3 63.4,134.3 63.4,130.6 66.7,130.6 66.7,126.8 86.1,126.8 86.1,123.0 96.2,123.0 96.2,119.2 96.5,119.2 96.5,115.4 112.9,115.4 112.9,111.7 138.9,111.7 138.9,107.9 142.0,107.9 142.0,104.1 143.3,104.1 143.3,100.3 161.8,100.3 161.8,96.5 171.8,96.5 171.8,92.7 197.4,92.7 197.4,89.0 217.3,89.0 217.3,85.2 224.3,85.2 224.3,81.4 228.5,81.4 228.5,77.6 246.1,77.6 246.1,73.8 256.9,73.8 256.9,70.0 263.7,70.0 263.7,66.3 272.4,66.3 272.4,62.5 287.4,62.5 287.4,58.7 290.0,58.7 290.0,54.9 295.9,54.9 295.9,51.1 303.2,51.1 303.2,47.3 311.0,47.3 311.0,43.6 337.7,43.6 337.7,39.8 500.1,39.8 500.1,36.0 570.0,36.0" fill="none" stroke="#009E73" stroke-width="1.8"><title>SCIP: fastest on 72%, solved 100%</title></polyline>
<line x1="584" y1="88" x2="610" y2="88" stroke="#009E73" stroke-width="1.8"/>
<text x="616" y="92">SCIP</text>
<polyline points="60.0,77.6 60.0,77.6 60.0,77.6 60.0,77.6 60.0,77.6 60.0,77.6 60.0,77.6 60.0,77.6 60.0,77.6 60.0,77.6 60.0,77.6 60.0,77.6 60.0,77.6 60.0,77.6 60.0,77.6 60.0,77.6 60.0,77.6 60.0,77.6 60.0,77.6 60.0,77.6 60.0,77.6 60.0,77.6 60.0,77.6 60.0,77.6 60.0,77.6 60.0,77.6 60.0,77.6 60.0,77.6 60.0,77.6 60.0,77.6 60.0,77.6 60.0,77.6 60.0,77.6 60.0,77.6 60.0,77.6 60.0,77.6 60.0,77.6 60.0,77.6 60.0,77.6 60.0,77.6 60.0,77.6 60.0,77.6 60.0,77.6 60.0,77.6 60.0,77.6 60.0,77.6 60.0,77.6 60.0,77.6 60.0,77.6 60.0,77.6 60.0,77.6 60.0,77.6 60.0,77.6 60.0,77.6 60.0,77.6 60.0,77.6 60.0,77.6 60.0,77.6 60.0,77.6 60.0,77.6 60.0,77.6 60.0,77.6 60.0,77.6 60.0,77.6 60.0,77.6 60.0,77.6 60.0,77.6 60.0,77.6 60.0,77.6 60.0,77.6 60.0,77.6 60.0,77.6 60.0,77.6 60.0,77.6 60.0,77.6 60.0,77.6 60.0,77.6 60.0,77.6 60.0,77.6 60.0,77.6 60.0,77.6 60.0,77.6 60.0,77.6 60.0,77.6 60.0,77.6 60.0,77.6 60.0,77.6 60.0,77.6 60.0,77.6 60.0,77.6 60.0,77.6 60.0,77.6 60.0,77.6 60.0,77.6 60.0,77.6 60.0,77.6 60.0,77.6 60.0,77.6 60.0,77.6 60.0,77.6 60.0,77.6 60.0,77.6 60.0,77.6 60.0,77.6 60.0,77.6 60.0,77.6 60.0,77.6 60.0,77.6 60.0,77.6 60.0,77.6 60.0,77.6 60.0,77.6 60.0,77.6 60.0,77.6 60.0,77.6 60.0,77.6 60.0,77.6 60.0,77.6 60.0,77.6 60.0,77.6 60.0,77.6 60.0,77.6 60.0,77.6 60.0,77.6 60.0,77.6 60.0,77.6 60.0,77.6 60.0,77.6 60.0,77.6 60.0,77.6 60.0,77.6 60.0,77.6 60.0,77.6 60.0,77.6 60.0,77.6 60.0,77.6 60.0,77.6 60.0,77.6 60.0,77.6 60.0,77.6 60.0,77.6 60.0,77.6 60.0,77.6 60.0,77.6 60.0,77.6 60.0,77.6 60.0,77.6 60.0,77.6 60.0,77.6 60.0,77.6 60.0,77.6 60.0,77.6 60.0,77.6 60.0,77.6 60.0,77.6 60.0,77.6 60.0,77.6 60.0,77.6 60.0,77.6 60.0,77.6 60.0,77.6 60.0,77.6 60.0,77.6 67.0,77.6 67.0,73.8 89.7,73.8 89.7,70.0 93.3,70.0 93.3,66.3 95.5,66.3 95.5,62.5 121.1,62.5 121.1,58.7 138.7,58.7 138.7,54.9 396.7,54.9 396.7,51.1 570.0,51.1" fill="none" stroke="#CC79A7" stroke-width="1.8"><title>CBC/Clp: fastest on 88%, solved 100%</title></polyline>
<line x1="584" y1="108" x2="610" y2="108" stroke="#CC79A7" stroke-width="1.8"/>
<text x="616" y="112">CBC/Clp</text>
<polyline points="60.0,89.0 60.0,89.0 60.0,89.0 60.0,89.0 60.0,89.0 60.0,89.0 60.0,89.0 60.0,89.0 60.0,89.0 60.0,89.0 60.0,89.0 60.0,89.0 60.0,89.0 60.0,89.0 60.0,89.0 60.0,89.0 60.0,89.0 60.0,89.0 60.0,89.0 60.0,89.0 60.0,89.0 60.0,89.0 60.0,89.0 60.0,89.0 60.0,89.0 60.0,89.0 60.0,89.0 60.0,89.0 60.0,89.0 60.0,89.0 60.0,89.0 60.0,89.0 60.0,89.0 60.0,89.0 60.0,89.0 60.0,89.0 60.0,89.0 60.0,89.0 60.0,89.0 60.0,89.0 60.0,89.0 60.0,89.0 60.0,89.0 60.0,89.0 60.0,89.0 60.0,89.0 60.0,89.0 60.0,89.0 60.0,89.0 60.0,89.0 60.0,89.0 60.0,89.0 60.0,89.0 60.0,89.0 60.0,89.0 60.0,89.0 60.0,89.0 60.0,89.0 60.0,89.0 60.0,89.0 60.0,89.0 60.0,89.0 60.0,89.0 60.0,89.0 60.0,89.0 60.0,89.0 60.0,89.0 60.0,89.0 60.0,89.0 60.0,89.0 60.0,89.0 60.0,89.0 60.0,89.0 60.0,89.0 60.0,89.0 60.0,89.0 60.0,89.0 60.0,89.0 60.0,89.0 60.0,89.0 60.0,89.0 60.0,89.0 60.0,89.0 60.0,89.0 60.0,89.0 60.0,89.0 60.0,89.0 60.0,89.0 60.0,89.0 60.0,89.0 60.0,89.0 60.0,89.0 60.0,89.0 60.0,89.0 60.0,89.0 60.0,89.0 60.0,89.0 60.0,89.0 60.0,89.0 60.0,89.0 60.0,89.0 60.0,89.0 60.0,89.0 60.0,89.0 60.0,89.0 60.0,89.0 60.0,89.0 60.0,89.0 60.0,89.0 60.0,89.0 60.0,89.0 60.0,89.0 60.0,89.0 60.0,89.0 60.0,89.0 60.0,89.0 60.0,89.0 60.0,89.0 60.0,89.0 60.0,89.0 60.0,89.0 60.0,89.0 60.0,89.0 60.0,89.0 60.0,89.0 60.0,89.0 60.0,89.0 60.0,89.0 60.0,89.0 60.0,89.0 60.0,89.0 60.0,89.0 60.0,89.0 60.0,89.0 60.0,89.0 60.0,89.0 60.0,89.0 60.0,89.0 60.0,89.0 60.0,89.0 60.0,89.0 60.0,89.0 60.0,89.0 60.0,89.0 60.0,89.0 60.0,89.0 60.0,89.0 60.0,89.0 60.0,89.0 60.0,89.0 60.0,89.0 60.0,89.0 60.0,89.0 60.0,89.0 60.0,89.0 60.0,89.0 60.0,89.0 73.5,89.0 73.5,85.2 117.8,85.2 117.8,81.4 129.8,81.4 129.8,77.6 149.3,77.6 149.3,73.8 162.0,73.8 162.0,66.3 162.0,66.3 162.0,66.3 174.8,66.3 174.8,62.5 186.1,62.5 186.1,58.7 188.5,58.7 188.5,54.9 212.7,54.9 212.7,51.1 296.8,51.1 296.8,47.3 412.9,47.3 412.9,43.6 560.5,43.6 560.5,39.8 570.0,39.8" fill="none" stroke="#E69F00" stroke-width="1.8"><title>GLPK: fastest on 85%, solved 100%</title></polyline>
<line x1="584" y1="128" x2="610" y2="128" stroke="#E69F00" stroke-width="1.8"/>
<text x="616" y="132">GLPK</text>
</svg>
